# xmcd
#
# Track frame offsets: 
#        150
#        21177
#        33693
#        51619
#        70378
#        87051
#        103911
#        118016
#        134895
#        151330
#        171941
#        194339
#        209001
#        229408
#        247225
#        266298
#        283023
#        303506
#        319965
#
# Disc length: 4460 seconds
#
# Revision: 0
# Processed by: cddbd v1.5.2PL0 Copyright (c) Steve Scherf et al.
# Submitted via: ExactAudioCopy v1.0b3
#
DISCID=32116a13
DTITLE=Various Artist - Take 4 Soul Jive Workshop
DYEAR=2014
DGENRE=Blues
TTITLE0=Norah Jones - Sinkin' Soon
TTITLE1=Dusty Springfield - Spooky
TTITLE2=Ian Mcenzie - Mambo Tonight
TTITLE3=Eva Cassidy - Wade in the Water
TTITLE4=Melanie Fiona - Give it to me Right
TTITLE5=Tito and Tarantula - After Dark
TTITLE6=Michael Buble - Sway
TTITLE7=New Kids on the Block - Click Click Click
TTITLE8=Susie Boggus - Eat at Joe's
TTITLE9=Christina Aguilera - Nasty Naughty Boy
TTITLE10=Michael Jackson - Whatever Happens
TTITLE11=Renee Olstead and Carol Welsman - On a Slow Boat to China
TTITLE12=Tracey Chapman - Give me One Reason
TTITLE13=Patti Scialfa - Come Tomorrow
TTITLE14=Tango Fire - Passion of the Dance
TTITLE15=Touch and Go - Straight to Number One
TTITLE16=Isaac Hayes - Walk on by
TTITLE17=Eight to the Bar - Walk of Shame
TTITLE18=Stella Starlight Trio - Tainted Love
EXTD=
EXTT0=
EXTT1=
EXTT2=
EXTT3=
EXTT4=
EXTT5=
EXTT6=
EXTT7=
EXTT8=
EXTT9=
EXTT10=
EXTT11=
EXTT12=
EXTT13=
EXTT14=
EXTT15=
EXTT16=
EXTT17=
EXTT18=
PLAYORDER=
